<?xml version="1.0" encoding="UTF-8" standalone="no"?>
<svg width="1064px" height="127px" viewBox="0 0 1064 127" version="1.1" xmlns="http://www.w3.org/2000/svg" xmlns:xlink="http://www.w3.org/1999/xlink">
    <!-- Generator: Sketch 42 (36781) - http://www.bohemiancoding.com/sketch -->
    <title>Artboard Copy</title>
    <desc>Created with Sketch.</desc>
    <defs></defs>
    <g id="Page-1" stroke="none" stroke-width="1" fill="none" fill-rule="evenodd">
        <g id="Artboard-Copy">
            <g id="Page-1">
                <path d="M144.12,58.93 L90.175,109.272 L36.222,58.93 C30.786,53.935 28.681,47.416 28.681,40.484 C28.681,33.552 29.896,27.861 35.341,22.875 C40.141,18.462 46.598,16.031 53.513,16.031 C60.419,16.031 66.876,20.224 71.677,24.646 L90.175,40.722 L108.665,24.637 C113.475,20.215 119.923,16.022 126.838,16.022 C133.752,16.022 140.209,18.453 145.01,22.867 C150.454,27.852 151.661,33.543 151.661,40.475 C151.661,47.408 149.564,53.935 144.12,58.93 M153.511,12.956 C138.782,-0.565 114.901,-0.565 100.173,12.956 L90.175,22.126 L80.168,12.956 C65.44,-0.565 41.568,-0.565 26.84,12.956 C10.27,28.16 10.27,52.764 26.84,67.968 L90.175,126.097 L153.511,67.968 C170.071,52.764 170.071,28.152 153.511,12.956" id="Fill-1" fill="#2E9596"></path>
                <polygon id="Fill-3" fill="#46C1C6" points="45.7616 10.9095 64.4636 9.1565 90.1786 30.1955 115.8936 10.3255 131.6736 7.9875 155.6356 20.2615 159.7266 48.3135 93.1016 115.5225 24.8516 53.8635 20.7346 34.7345 31.1516 15.5855"></polygon>
                <path d="M145.8329,57.2181 L91.8879,107.5601 L37.9339,57.2181 C32.4979,52.2231 30.3939,45.7041 30.3939,38.7721 C30.3939,31.8391 31.6079,26.1491 37.0529,21.1631 C41.8539,16.7501 48.3109,14.3191 55.2259,14.3191 C62.1309,14.3191 68.5879,18.5121 73.3889,22.9341 L91.8879,39.0101 L110.3769,22.9251 C115.1869,18.5031 121.6349,14.3101 128.5499,14.3101 C135.4649,14.3101 141.9219,16.7411 146.7229,21.1551 C152.1659,26.1401 153.3729,31.8301 153.3729,38.7631 C153.3729,45.6961 151.2759,52.2231 145.8329,57.2181 M155.2229,11.2441 C140.4939,-2.2769 116.6129,-2.2769 101.8859,11.2441 L91.8879,20.4141 L81.8809,11.2441 C67.1519,-2.2769 43.2799,-2.2769 28.5519,11.2441 C11.9819,26.4481 11.9819,51.0511 28.5519,66.2551 L91.8879,124.3851 L155.2229,66.2551 C171.7829,51.0511 171.7829,26.4401 155.2229,11.2441" id="Fill-5" fill="#46C1C6"></path>
                <path d="M5.0594,47.4867 C5.0594,47.4867 6.6094,44.0257 8.8204,41.9997 C11.0304,39.9727 11.8284,39.2987 13.4864,38.8687 C15.1434,38.4387 17.7224,38.0077 19.3194,38.0077 C20.9144,38.0077 33.9934,37.8247 34.6674,37.8247 C35.3434,37.8247 33.8704,44.3327 29.6954,44.5167 C25.5204,44.7007 16.0034,44.2097 14.5304,44.6397 C13.0564,45.0697 11.5824,45.9907 10.9074,46.9117 C10.2324,47.8327 8.6974,49.7357 6.9784,49.7357 L5.2584,49.7357 C5.2584,49.7357 5.0434,48.4307 5.0594,47.4867" id="Fill-7" fill="#F3BEB3"></path>
                <path d="M139.2206,63.0228 C143.5726,59.8438 151.2996,53.2828 154.3376,46.2418 C157.3766,39.2008 155.7256,31.6788 155.7256,31.6788 C152.5366,30.8818 98.7236,39.8618 94.0076,40.8328 C88.4116,41.9848 78.5176,41.5088 78.2516,40.4468 C77.9866,39.3838 69.2186,16.2708 69.2186,16.2708 C69.2186,16.2708 64.0376,8.4328 60.7176,6.4408 C57.3966,4.4488 51.9496,0.3308 47.5666,0.0648 C43.1836,-0.2012 39.1986,0.3308 36.6736,2.1898 C34.1506,4.0498 33.4866,6.4408 31.3606,6.7068 C29.2356,6.9718 16.0846,4.4488 13.2946,3.9168 C10.9416,3.4678 6.0316,1.4128 2.4196,1.2768 C1.7506,1.2518 0.5146,2.3708 0.0236,2.5018 C0.0236,2.5018 1.6056,17.5988 2.8006,20.9198 C3.9956,24.2408 5.9896,28.4918 8.3796,30.2178 C10.7716,31.9458 16.7486,34.3358 20.7346,34.7348 C24.7186,35.1328 33.2206,35.3988 33.2206,35.3988 C33.2206,35.3988 33.5556,36.5268 33.5836,37.9208 C33.6146,39.4368 33.2826,41.2678 31.7596,42.3058 C28.8366,44.2988 24.5856,44.1668 22.5936,44.1668 C20.6016,44.1668 14.4906,44.0338 13.6936,44.4318 C12.8966,44.8308 13.4276,49.2138 16.2176,50.8078 C19.0066,52.4018 23.3906,53.7308 24.8516,53.8638 C26.3136,53.9968 34.4156,54.3948 34.4156,54.3948 C34.4156,54.3948 38.3056,57.0438 39.4036,58.7278 C40.8166,60.8978 51.8706,70.6328 54.0026,72.9508 C69.9086,90.2398 91.8876,107.5598 91.8876,107.5598 C91.8876,107.5598 102.8406,97.3668 104.7046,95.8738 C111.6476,90.3108 119.8206,82.4378 119.8206,82.4378 C119.8206,82.4378 135.6156,65.6588 139.2206,63.0228" id="Fill-9" fill="#EFEFEF"></path>
                <path d="M56.5946,3.9691 C56.5946,3.9691 55.4376,46.3291 55.4376,47.9311 C55.4376,49.5321 56.4166,50.8671 58.0186,50.8671 C59.6196,50.8671 64.2476,51.3131 67.6296,48.9091 C71.0106,46.5071 79.6436,38.9431 81.6016,34.9381 C83.5586,30.9341 83.3806,26.6621 80.5326,23.1021 C77.6856,19.5421 64.5146,7.5291 61.1326,5.3931 C58.0006,3.4141 57.3956,3.5241 56.5946,3.9691" id="Fill-11" fill="#DDBCAF"></path>
                <path d="M0.8055,8.5414 C0.8055,8.5414 4.2975,9.8004 7.2995,8.1414 C9.4945,6.9274 12.1195,4.1794 11.3185,3.3774 C10.5165,2.5754 5.7205,1.6174 3.5135,1.2984 C2.2255,1.1114 0.0875,0.4794 0.0045,2.1284 C-0.0685,3.5684 0.8055,8.5414 0.8055,8.5414" id="Fill-13" fill="#DDBCAF"></path>
                <path d="M130.8055,74.2054 C120.6525,83.2954 121.7465,82.9234 110.9865,93.4824 C110.9865,93.4824 101.2605,99.7734 91.7625,109.7554 L75.2935,94.3754 C75.2935,94.3754 63.4795,91.2534 47.6075,80.9304 C37.0525,74.0644 61.3575,68.6764 69.0225,67.1524 C78.1615,65.3364 98.8085,57.0574 99.9295,55.9664 C102.9305,53.0474 103.2885,51.9644 103.2885,51.9644 C103.2885,51.9644 97.8025,43.3034 93.9935,26.1014 C92.4505,19.1334 93.6475,17.3204 93.6475,17.3204 C93.6475,17.3204 93.8635,15.2274 96.9725,16.3184 C100.0825,17.4084 107.3065,21.5184 108.8955,23.0874 C108.8955,23.0874 120.1025,13.6614 134.3235,15.1454 C134.3235,15.1454 135.8085,7.3374 137.0675,5.4064 C138.1725,3.7144 139.0655,3.2834 139.7155,3.6604 C142.3745,5.2034 145.4595,8.7674 148.4515,13.9014 C151.4345,19.0214 158.8415,28.4044 155.6525,42.6834 C152.4625,56.9604 134.3165,60.6774 134.3165,60.6774 C134.3165,60.6774 132.4605,66.8944 130.8055,74.2054" id="Fill-15" fill="#DDBCAF"></path>
                <path d="M131.703,40.0941 C131.703,40.0941 135.216,36.2631 139.007,38.0601 C139.007,38.0601 139.57,41.1291 137.006,42.7471 C137.006,42.7471 132.544,43.1191 131.703,40.0941" id="Fill-17" fill="#A38E88"></path>
                <path d="M132.9647,69.2376 L91.9017,107.5566 L39.1497,58.3366 C36.8537,62.0526 33.0617,64.8306 27.7567,65.4306 C28.0347,65.7006 28.2777,65.9886 28.5667,66.2526 L91.9017,124.3826 L144.0827,76.4906 C138.8877,75.7786 135.1807,72.9666 132.9647,69.2376" id="Fill-19" fill="#46C1C6"></path>
                <path d="M117.1024,38.3333 C118.3974,35.4513 121.3604,34.6193 124.2054,35.6873 C125.0684,36.0103 125.4414,34.6283 124.5854,34.3073 C121.2014,33.0383 117.4134,34.1733 115.8684,37.6113 C115.4934,38.4433 116.7254,39.1723 117.1024,38.3333" id="Fill-21" fill="#A38E88"></path>
                <path d="M138.7928,32.0824 C140.0878,29.2014 143.0508,28.3694 145.8958,29.4364 C146.7588,29.7594 147.1318,28.3774 146.2758,28.0564 C142.8908,26.7874 139.1038,27.9224 137.5578,31.3604 C137.1838,32.1924 138.4158,32.9214 138.7928,32.0824" id="Fill-23" fill="#A38E88"></path>
                <path d="M36.2459,10.3929 C36.2459,10.3929 43.3499,11.5769 43.3499,18.0419" id="Fill-25" fill="#A48F88"></path>
                <path d="M137.5721,15.1205 C137.5721,15.1205 138.4751,8.3135 139.4311,7.6195 C140.3861,6.9245 142.2971,9.7905 142.2971,9.7905 C142.2971,9.7905 145.3361,14.8265 145.3361,15.6945 C145.3361,15.6945 140.0541,16.1085 137.5721,15.1205" id="Fill-27" fill="#A48F88"></path>
                <path d="M97.8622,28.3294 C97.8622,28.3294 95.2742,21.4794 96.7042,19.9964 C98.1332,18.5144 104.9912,24.7964 104.9912,24.7964 C104.9912,24.7964 98.5112,30.0194 98.1862,29.1754 L97.8622,28.3294 Z" id="Fill-29" fill="#A48F88"></path>
                <path d="M136.9207,42.4798 C136.9207,42.4798 140.2907,49.5358 132.4847,49.7798" id="Stroke-31" stroke="#A38E88" stroke-width="1.007" stroke-linecap="round"></path>
                <path d="M137.0565,42.8919 C137.0565,42.8919 138.8965,50.4919 145.1045,45.7539" id="Stroke-33" stroke="#A38E88" stroke-width="1.007" stroke-linecap="round"></path>
            </g>
            <text id="AMBULATORIO" font-family="FiraSans-SemiBold, Fira Sans" font-size="35" font-weight="500" letter-spacing="1.94444466" fill="#46C1C6">
                <tspan x="197" y="40">AMBULATORIO</tspan>
            </text>
            <text id="Veterinario-Sperlong" font-family="BreeSerif-Regular, Bree Serif" font-size="77" font-weight="normal" letter-spacing="4.27777815" fill="#46C1C6">
                <tspan x="195" y="107">Veterinario Sperlonga</tspan>
            </text>
        </g>
    </g>
</svg>